<svg viewBox="0 0 24 24" fill="white" xmlns="http://www.w3.org/2000/svg">
  <path d="M7 18C5.9 18 5 18.9 5 20C5 21.1 5.9 22 7 22C8.1 22 9 21.1 9 20C9 18.9 8.1 18 7 18ZM1 2V4H3L6.6 11.59L5.24 14.04C5.09 14.32 5 14.65 5 15C5 16.1 5.9 17 7 17H19V15H7.42C7.28 15 7.17 14.89 7.17 14.75L7.2 14.65L8.1 13H14.55C15.3 13 15.96 12.58 16.3 11.97L20.88 3.97C20.96 3.84 21 3.68 21 3.5C21 3.22 20.78 3 20.5 3H5.21L4.27 1H1ZM17 18C15.9 18 15 18.9 15 20C15 21.1 15.9 22 17 22C18.1 22 19 21.1 19 20C19 18.9 18.1 18 17 18Z"></path>
</svg>
