<svg viewBox="0 0 32 32" fill="white" xmlns="http://www.w3.org/2000/svg">
  <path d="M16 .5C7.44.5.5 7.44.5 16c0 2.82.75 5.46 2.04 7.75L.5 31.5l7.95-2.02C10.55 29.25 13.18 30 16 30c8.56 0 15.5-6.94 15.5-15.5S24.56.5 16 .5zM16 28c-2.42 0-4.68-.66-6.62-1.8l-.47-.28-4.72 1.19 1.21-4.6-.31-.48C4.61 19.66 4 17.88 4 16 4 9.38 9.38 4 16 4s12 5.38 12 12-5.38 12-12 12zm6.02-8.59c-.33-.17-1.94-.96-2.24-1.07-.3-.11-.52-.17-.74.17s-.85 1.07-1.04 1.29c-.19.22-.38.25-.71.08-.33-.17-1.38-.51-2.63-1.63-.97-.87-1.62-1.94-1.81-2.27-.19-.33-.02-.51.14-.67.15-.15.33-.38.49-.57.16-.19.22-.33.33-.55.11-.22.06-.41-.03-.58-.09-.17-.74-1.78-1.02-2.44-.27-.65-.55-.56-.74-.57l-.63-.01c-.22 0-.58.08-.89.41-.3.33-1.17 1.14-1.17 2.77 0 1.63 1.19 3.2 1.36 3.42.17.22 2.35 3.6 5.7 5.05.8.35 1.42.56 1.9.71.8.25 1.53.22 2.11.13.64-.1 1.94-.79 2.21-1.56.27-.77.27-1.43.19-1.56-.08-.13-.3-.21-.63-.38z"></path>
</svg>
